<?xml version="1.0" standalone="no"?><!DOCTYPE svg PUBLIC "-//W3C//DTD SVG 1.1//EN" "http://www.w3.org/Graphics/SVG/1.1/DTD/svg11.dtd"><svg t="1658844820956" class="icon" viewBox="0 0 1024 1024" version="1.1" xmlns="http://www.w3.org/2000/svg" p-id="2904" xmlns:xlink="http://www.w3.org/1999/xlink" width="200" height="200"><defs><style type="text/css"></style></defs><path d="M853.333333 149.333333H170.666667A106.666667 106.666667 0 0 0 64 256v512A106.666667 106.666667 0 0 0 170.666667 874.666667h682.666666a106.666667 106.666667 0 0 0 106.666667-106.666667V256A106.666667 106.666667 0 0 0 853.333333 149.333333zM106.666667 256c0-35.413333 28.586667-64 64-64h682.666666c35.413333 0 64 28.586667 64 64v64h-810.666666V256zM853.333333 832H170.666667c-35.413333 0-64-28.586667-64-64V362.666667h810.666666V768c0 35.413333-28.586667 64-64 64z" fill="#ffffff" p-id="2905"></path><path d="M537.173333 469.76a21.290667 21.290667 0 0 0-24.746666 17.066667l-42.666667 234.666666c-2.133333 11.52 5.546667 22.613333 17.066667 24.746667 1.28 0 2.56 0.426667 3.84 0.426667 10.24 0 19.2-7.253333 20.906666-17.493334l42.666667-234.666666a21.290667 21.290667 0 0 0-17.066667-24.746667zM674.986667 474.453333c-8.96-7.68-22.613333-6.4-29.866667 2.56s-6.4 22.613333 2.56 29.866667l110.08 91.733333-111.36 111.36c-8.533333 8.533333-8.533333 21.76 0 30.293334a20.693333 20.693333 0 0 0 29.866667 0l128-128c4.266667-4.266667 6.4-10.24 6.4-16.213334a21.504 21.504 0 0 0-7.68-15.36l-128-106.24zM266.24 598.613333l110.08-91.733333c8.96-7.68 10.24-20.906667 2.56-29.866667a21.077333 21.077333 0 0 0-29.866667-2.56l-128 106.666667a21.205333 21.205333 0 0 0-1.28 31.573333l128 128a20.693333 20.693333 0 0 0 29.866667 0c8.533333-8.533333 8.533333-21.76 0-30.293333l-111.36-111.786667z" fill="#ffffff" p-id="2906"></path></svg>